# xmcd CD database file
#
# Track frame offsets:
#	182
#	24082
#	47757
#	61702
#	74252
#	95137
#	110940
#	122275
#	139080
#	161667
#	180477
#	203865
#	221750
#	239392
#	255600
#	274407
#
# Disc length: 3849 seconds
#
# Revision: 5
# Processed by: cddbd v1.5.2PL0 Copyright (c) Steve Scherf et al.
# Submitted via: CDex 1.51
#
DISCID=eb0f0710
DTITLE=Paolo Conte - Paolo Conte
DYEAR=1996
DGENRE=Jazz
TTITLE0=Boogie
TTITLE1=Un Gelato Al Limone
TTITLE2=La Ricostruzione Del Mocambo
TTITLE3=Via Con Me
TTITLE4=Dal Loggione
TTITLE5=Luna Di Marmellata
TTITLE6=Bartali
TTITLE7=L'Ultima Donna
TTITLE8=Arte
TTITLE9=Blue Tangos
TTITLE10=Alla Prese Con Una Verde Milonga
TTITLE11=Pretend
TTITLE12=Hemingway
TTITLE13=Blue Haways
TTITLE14=Lo Zio
TTITLE15=Parigi
EXTD=YEAR: 1996
EXTT0=
EXTT1=
EXTT2=
EXTT3=
EXTT4=
EXTT5=
EXTT6=
EXTT7=
EXTT8=
EXTT9=
EXTT10=
EXTT11=
EXTT12=
EXTT13=
EXTT14=
EXTT15=
PLAYORDER=
